<mxfile host="app.diagrams.net" modified="2024-04-22T12:15:01.265Z" agent="Mozilla/5.0 (Windows NT 10.0; Win64; x64) AppleWebKit/537.36 (KHTML, like Gecko) Chrome/124.0.0.0 Safari/537.36" etag="vnfX4wDp_JfOnnyj9EqX" version="24.2.7" type="github">
  <diagram name="Strona-1" id="ludtMGKLYoNglBVRPGG5">
    <mxGraphModel dx="4598" dy="2011" grid="1" gridSize="10" guides="1" tooltips="1" connect="1" arrows="1" fold="1" page="1" pageScale="1" pageWidth="827" pageHeight="1169" math="0" shadow="0">
      <root>
        <mxCell id="0" />
        <mxCell id="1" parent="0" />
        <mxCell id="da1G7Z1QZZnTR9q6aklC-159" value="" style="rounded=0;whiteSpace=wrap;html=1;" vertex="1" parent="1">
          <mxGeometry x="1510" y="360" width="500" height="140" as="geometry" />
        </mxCell>
        <mxCell id="da1G7Z1QZZnTR9q6aklC-158" value="" style="rounded=0;whiteSpace=wrap;html=1;" vertex="1" parent="1">
          <mxGeometry x="1310" y="420" width="160" height="60" as="geometry" />
        </mxCell>
        <mxCell id="da1G7Z1QZZnTR9q6aklC-149" value="" style="rounded=0;whiteSpace=wrap;html=1;" vertex="1" parent="1">
          <mxGeometry x="670" y="220" width="610" height="300" as="geometry" />
        </mxCell>
        <mxCell id="da1G7Z1QZZnTR9q6aklC-117" value="" style="rounded=0;whiteSpace=wrap;html=1;" vertex="1" parent="1">
          <mxGeometry x="520" y="220" width="90" height="270" as="geometry" />
        </mxCell>
        <mxCell id="da1G7Z1QZZnTR9q6aklC-116" value="" style="rounded=0;whiteSpace=wrap;html=1;" vertex="1" parent="1">
          <mxGeometry x="75" y="220" width="95" height="270" as="geometry" />
        </mxCell>
        <mxCell id="da1G7Z1QZZnTR9q6aklC-115" value="" style="rounded=0;whiteSpace=wrap;html=1;" vertex="1" parent="1">
          <mxGeometry x="370" y="220" width="90" height="270" as="geometry" />
        </mxCell>
        <mxCell id="da1G7Z1QZZnTR9q6aklC-8" style="edgeStyle=orthogonalEdgeStyle;rounded=0;orthogonalLoop=1;jettySize=auto;html=1;exitX=1;exitY=0.5;exitDx=0;exitDy=0;entryX=0;entryY=0.5;entryDx=0;entryDy=0;" edge="1" parent="1" source="da1G7Z1QZZnTR9q6aklC-3" target="da1G7Z1QZZnTR9q6aklC-5">
          <mxGeometry relative="1" as="geometry">
            <mxPoint x="80" y="120" as="targetPoint" />
          </mxGeometry>
        </mxCell>
        <mxCell id="da1G7Z1QZZnTR9q6aklC-3" value="&lt;font style=&quot;font-size: 18px;&quot;&gt;3500580&lt;/font&gt;" style="shape=process;whiteSpace=wrap;html=1;backgroundOutline=1;" vertex="1" parent="1">
          <mxGeometry x="-320" y="210" width="160" height="40" as="geometry" />
        </mxCell>
        <mxCell id="da1G7Z1QZZnTR9q6aklC-26" style="edgeStyle=orthogonalEdgeStyle;rounded=0;orthogonalLoop=1;jettySize=auto;html=1;exitX=1;exitY=0.5;exitDx=0;exitDy=0;entryX=0;entryY=0.5;entryDx=0;entryDy=0;" edge="1" parent="1" source="da1G7Z1QZZnTR9q6aklC-5" target="da1G7Z1QZZnTR9q6aklC-11">
          <mxGeometry relative="1" as="geometry" />
        </mxCell>
        <mxCell id="da1G7Z1QZZnTR9q6aklC-5" value="W01-W03" style="rounded=0;whiteSpace=wrap;html=1;" vertex="1" parent="1">
          <mxGeometry x="-80" y="215" width="80" height="30" as="geometry" />
        </mxCell>
        <mxCell id="da1G7Z1QZZnTR9q6aklC-11" value="ZP Palenie S1" style="rounded=0;whiteSpace=wrap;html=1;" vertex="1" parent="1">
          <mxGeometry x="75" y="220" width="95" height="20" as="geometry" />
        </mxCell>
        <mxCell id="da1G7Z1QZZnTR9q6aklC-70" style="edgeStyle=orthogonalEdgeStyle;rounded=0;orthogonalLoop=1;jettySize=auto;html=1;exitX=1;exitY=0.5;exitDx=0;exitDy=0;entryX=0;entryY=0.5;entryDx=0;entryDy=0;" edge="1" parent="1" source="da1G7Z1QZZnTR9q6aklC-61" target="da1G7Z1QZZnTR9q6aklC-67">
          <mxGeometry relative="1" as="geometry">
            <mxPoint x="160" y="290" as="targetPoint" />
            <Array as="points">
              <mxPoint x="190" y="270" />
              <mxPoint x="190" y="310" />
            </Array>
          </mxGeometry>
        </mxCell>
        <mxCell id="da1G7Z1QZZnTR9q6aklC-61" value="401A" style="rounded=0;whiteSpace=wrap;html=1;" vertex="1" parent="1">
          <mxGeometry x="90" y="260" width="60" height="20" as="geometry" />
        </mxCell>
        <mxCell id="da1G7Z1QZZnTR9q6aklC-71" style="edgeStyle=orthogonalEdgeStyle;rounded=0;orthogonalLoop=1;jettySize=auto;html=1;exitX=1;exitY=0.5;exitDx=0;exitDy=0;entryX=0;entryY=0.5;entryDx=0;entryDy=0;" edge="1" parent="1" source="da1G7Z1QZZnTR9q6aklC-62" target="da1G7Z1QZZnTR9q6aklC-67">
          <mxGeometry relative="1" as="geometry">
            <mxPoint x="170" y="299.7586206896551" as="targetPoint" />
          </mxGeometry>
        </mxCell>
        <mxCell id="da1G7Z1QZZnTR9q6aklC-62" value="401B" style="rounded=0;whiteSpace=wrap;html=1;" vertex="1" parent="1">
          <mxGeometry x="90" y="300" width="60" height="20" as="geometry" />
        </mxCell>
        <mxCell id="da1G7Z1QZZnTR9q6aklC-79" style="edgeStyle=orthogonalEdgeStyle;rounded=0;orthogonalLoop=1;jettySize=auto;html=1;exitX=1;exitY=0.5;exitDx=0;exitDy=0;entryX=0;entryY=0.5;entryDx=0;entryDy=0;" edge="1" parent="1" source="da1G7Z1QZZnTR9q6aklC-63" target="da1G7Z1QZZnTR9q6aklC-74">
          <mxGeometry relative="1" as="geometry" />
        </mxCell>
        <mxCell id="da1G7Z1QZZnTR9q6aklC-63" value="402" style="rounded=0;whiteSpace=wrap;html=1;" vertex="1" parent="1">
          <mxGeometry x="90" y="340" width="60" height="20" as="geometry" />
        </mxCell>
        <mxCell id="da1G7Z1QZZnTR9q6aklC-80" style="edgeStyle=orthogonalEdgeStyle;rounded=0;orthogonalLoop=1;jettySize=auto;html=1;exitX=1;exitY=0.5;exitDx=0;exitDy=0;entryX=0;entryY=0.5;entryDx=0;entryDy=0;" edge="1" parent="1" source="da1G7Z1QZZnTR9q6aklC-64" target="da1G7Z1QZZnTR9q6aklC-75">
          <mxGeometry relative="1" as="geometry" />
        </mxCell>
        <mxCell id="da1G7Z1QZZnTR9q6aklC-64" value="403" style="rounded=0;whiteSpace=wrap;html=1;" vertex="1" parent="1">
          <mxGeometry x="90" y="380" width="60" height="20" as="geometry" />
        </mxCell>
        <mxCell id="da1G7Z1QZZnTR9q6aklC-81" style="edgeStyle=orthogonalEdgeStyle;rounded=0;orthogonalLoop=1;jettySize=auto;html=1;exitX=1;exitY=0.5;exitDx=0;exitDy=0;entryX=0;entryY=0.5;entryDx=0;entryDy=0;" edge="1" parent="1" source="da1G7Z1QZZnTR9q6aklC-65" target="da1G7Z1QZZnTR9q6aklC-76">
          <mxGeometry relative="1" as="geometry" />
        </mxCell>
        <mxCell id="da1G7Z1QZZnTR9q6aklC-65" value="404" style="rounded=0;whiteSpace=wrap;html=1;" vertex="1" parent="1">
          <mxGeometry x="90" y="420" width="60" height="20" as="geometry" />
        </mxCell>
        <mxCell id="da1G7Z1QZZnTR9q6aklC-82" style="edgeStyle=orthogonalEdgeStyle;rounded=0;orthogonalLoop=1;jettySize=auto;html=1;exitX=1;exitY=0.5;exitDx=0;exitDy=0;entryX=0;entryY=0.5;entryDx=0;entryDy=0;" edge="1" parent="1" source="da1G7Z1QZZnTR9q6aklC-66" target="da1G7Z1QZZnTR9q6aklC-77">
          <mxGeometry relative="1" as="geometry" />
        </mxCell>
        <mxCell id="da1G7Z1QZZnTR9q6aklC-66" value="405" style="rounded=0;whiteSpace=wrap;html=1;" vertex="1" parent="1">
          <mxGeometry x="90" y="460" width="60" height="20" as="geometry" />
        </mxCell>
        <mxCell id="da1G7Z1QZZnTR9q6aklC-78" style="edgeStyle=orthogonalEdgeStyle;rounded=0;orthogonalLoop=1;jettySize=auto;html=1;exitX=1;exitY=0.5;exitDx=0;exitDy=0;entryX=0;entryY=0.5;entryDx=0;entryDy=0;" edge="1" parent="1" source="da1G7Z1QZZnTR9q6aklC-67" target="da1G7Z1QZZnTR9q6aklC-73">
          <mxGeometry relative="1" as="geometry" />
        </mxCell>
        <mxCell id="da1G7Z1QZZnTR9q6aklC-67" value="ZP spawanie 401" style="rounded=0;whiteSpace=wrap;html=1;" vertex="1" parent="1">
          <mxGeometry x="230" y="295" width="100" height="30" as="geometry" />
        </mxCell>
        <mxCell id="da1G7Z1QZZnTR9q6aklC-72" value="ZP Zwijanie S1" style="rounded=0;whiteSpace=wrap;html=1;" vertex="1" parent="1">
          <mxGeometry x="370" y="220" width="90" height="20" as="geometry" />
        </mxCell>
        <mxCell id="da1G7Z1QZZnTR9q6aklC-89" style="edgeStyle=orthogonalEdgeStyle;rounded=0;orthogonalLoop=1;jettySize=auto;html=1;exitX=1;exitY=0.5;exitDx=0;exitDy=0;" edge="1" parent="1" source="da1G7Z1QZZnTR9q6aklC-73" target="da1G7Z1QZZnTR9q6aklC-84">
          <mxGeometry relative="1" as="geometry" />
        </mxCell>
        <mxCell id="da1G7Z1QZZnTR9q6aklC-73" value="401" style="rounded=0;whiteSpace=wrap;html=1;" vertex="1" parent="1">
          <mxGeometry x="384" y="300" width="60" height="20" as="geometry" />
        </mxCell>
        <mxCell id="da1G7Z1QZZnTR9q6aklC-90" style="edgeStyle=orthogonalEdgeStyle;rounded=0;orthogonalLoop=1;jettySize=auto;html=1;exitX=1;exitY=0.5;exitDx=0;exitDy=0;entryX=0;entryY=0.5;entryDx=0;entryDy=0;" edge="1" parent="1" source="da1G7Z1QZZnTR9q6aklC-74" target="da1G7Z1QZZnTR9q6aklC-85">
          <mxGeometry relative="1" as="geometry" />
        </mxCell>
        <mxCell id="da1G7Z1QZZnTR9q6aklC-74" value="402" style="rounded=0;whiteSpace=wrap;html=1;" vertex="1" parent="1">
          <mxGeometry x="384" y="340" width="60" height="20" as="geometry" />
        </mxCell>
        <mxCell id="da1G7Z1QZZnTR9q6aklC-91" style="edgeStyle=orthogonalEdgeStyle;rounded=0;orthogonalLoop=1;jettySize=auto;html=1;exitX=1;exitY=0.5;exitDx=0;exitDy=0;entryX=0;entryY=0.5;entryDx=0;entryDy=0;" edge="1" parent="1" source="da1G7Z1QZZnTR9q6aklC-75" target="da1G7Z1QZZnTR9q6aklC-86">
          <mxGeometry relative="1" as="geometry" />
        </mxCell>
        <mxCell id="da1G7Z1QZZnTR9q6aklC-75" value="403" style="rounded=0;whiteSpace=wrap;html=1;" vertex="1" parent="1">
          <mxGeometry x="384" y="380" width="60" height="20" as="geometry" />
        </mxCell>
        <mxCell id="da1G7Z1QZZnTR9q6aklC-92" style="edgeStyle=orthogonalEdgeStyle;rounded=0;orthogonalLoop=1;jettySize=auto;html=1;exitX=1;exitY=0.5;exitDx=0;exitDy=0;entryX=0;entryY=0.5;entryDx=0;entryDy=0;" edge="1" parent="1" source="da1G7Z1QZZnTR9q6aklC-76" target="da1G7Z1QZZnTR9q6aklC-87">
          <mxGeometry relative="1" as="geometry" />
        </mxCell>
        <mxCell id="da1G7Z1QZZnTR9q6aklC-76" value="404" style="rounded=0;whiteSpace=wrap;html=1;" vertex="1" parent="1">
          <mxGeometry x="384" y="420" width="60" height="20" as="geometry" />
        </mxCell>
        <mxCell id="da1G7Z1QZZnTR9q6aklC-93" style="edgeStyle=orthogonalEdgeStyle;rounded=0;orthogonalLoop=1;jettySize=auto;html=1;exitX=1;exitY=0.5;exitDx=0;exitDy=0;entryX=0;entryY=0.5;entryDx=0;entryDy=0;" edge="1" parent="1" source="da1G7Z1QZZnTR9q6aklC-77" target="da1G7Z1QZZnTR9q6aklC-88">
          <mxGeometry relative="1" as="geometry" />
        </mxCell>
        <mxCell id="da1G7Z1QZZnTR9q6aklC-77" value="405" style="rounded=0;whiteSpace=wrap;html=1;" vertex="1" parent="1">
          <mxGeometry x="384" y="460" width="60" height="20" as="geometry" />
        </mxCell>
        <mxCell id="da1G7Z1QZZnTR9q6aklC-83" value="ZP Spawanie LW S1" style="rounded=0;whiteSpace=wrap;html=1;" vertex="1" parent="1">
          <mxGeometry x="520" y="220" width="90" height="40" as="geometry" />
        </mxCell>
        <mxCell id="da1G7Z1QZZnTR9q6aklC-105" style="edgeStyle=orthogonalEdgeStyle;rounded=0;orthogonalLoop=1;jettySize=auto;html=1;exitX=1;exitY=0.5;exitDx=0;exitDy=0;entryX=0;entryY=0.5;entryDx=0;entryDy=0;" edge="1" parent="1" source="da1G7Z1QZZnTR9q6aklC-84" target="da1G7Z1QZZnTR9q6aklC-96">
          <mxGeometry relative="1" as="geometry" />
        </mxCell>
        <mxCell id="da1G7Z1QZZnTR9q6aklC-84" value="401" style="rounded=0;whiteSpace=wrap;html=1;" vertex="1" parent="1">
          <mxGeometry x="535" y="300" width="60" height="20" as="geometry" />
        </mxCell>
        <mxCell id="da1G7Z1QZZnTR9q6aklC-108" style="edgeStyle=orthogonalEdgeStyle;rounded=0;orthogonalLoop=1;jettySize=auto;html=1;exitX=1;exitY=0.5;exitDx=0;exitDy=0;entryX=0;entryY=0.5;entryDx=0;entryDy=0;" edge="1" parent="1" source="da1G7Z1QZZnTR9q6aklC-85" target="da1G7Z1QZZnTR9q6aklC-107">
          <mxGeometry relative="1" as="geometry">
            <Array as="points">
              <mxPoint x="660" y="350" />
              <mxPoint x="660" y="350" />
            </Array>
          </mxGeometry>
        </mxCell>
        <mxCell id="da1G7Z1QZZnTR9q6aklC-85" value="402" style="rounded=0;whiteSpace=wrap;html=1;" vertex="1" parent="1">
          <mxGeometry x="535" y="340" width="60" height="20" as="geometry" />
        </mxCell>
        <mxCell id="da1G7Z1QZZnTR9q6aklC-112" style="edgeStyle=orthogonalEdgeStyle;rounded=0;orthogonalLoop=1;jettySize=auto;html=1;exitX=1;exitY=0.5;exitDx=0;exitDy=0;entryX=0;entryY=0.5;entryDx=0;entryDy=0;" edge="1" parent="1" source="da1G7Z1QZZnTR9q6aklC-86" target="da1G7Z1QZZnTR9q6aklC-110">
          <mxGeometry relative="1" as="geometry" />
        </mxCell>
        <mxCell id="da1G7Z1QZZnTR9q6aklC-86" value="403" style="rounded=0;whiteSpace=wrap;html=1;" vertex="1" parent="1">
          <mxGeometry x="535" y="380" width="60" height="20" as="geometry" />
        </mxCell>
        <mxCell id="da1G7Z1QZZnTR9q6aklC-124" style="edgeStyle=orthogonalEdgeStyle;rounded=0;orthogonalLoop=1;jettySize=auto;html=1;exitX=1;exitY=0.5;exitDx=0;exitDy=0;entryX=0;entryY=0.5;entryDx=0;entryDy=0;" edge="1" parent="1" source="da1G7Z1QZZnTR9q6aklC-87" target="da1G7Z1QZZnTR9q6aklC-122">
          <mxGeometry relative="1" as="geometry" />
        </mxCell>
        <mxCell id="da1G7Z1QZZnTR9q6aklC-87" value="404" style="rounded=0;whiteSpace=wrap;html=1;" vertex="1" parent="1">
          <mxGeometry x="535" y="420" width="60" height="20" as="geometry" />
        </mxCell>
        <mxCell id="da1G7Z1QZZnTR9q6aklC-127" style="edgeStyle=orthogonalEdgeStyle;rounded=0;orthogonalLoop=1;jettySize=auto;html=1;exitX=1;exitY=0.5;exitDx=0;exitDy=0;" edge="1" parent="1" source="da1G7Z1QZZnTR9q6aklC-88" target="da1G7Z1QZZnTR9q6aklC-125">
          <mxGeometry relative="1" as="geometry" />
        </mxCell>
        <mxCell id="da1G7Z1QZZnTR9q6aklC-88" value="405" style="rounded=0;whiteSpace=wrap;html=1;" vertex="1" parent="1">
          <mxGeometry x="535" y="460" width="60" height="20" as="geometry" />
        </mxCell>
        <mxCell id="da1G7Z1QZZnTR9q6aklC-94" value="ZP Spawanie CW S1" style="rounded=0;whiteSpace=wrap;html=1;" vertex="1" parent="1">
          <mxGeometry x="920" y="220" width="110" height="40" as="geometry" />
        </mxCell>
        <mxCell id="da1G7Z1QZZnTR9q6aklC-144" style="edgeStyle=orthogonalEdgeStyle;rounded=0;orthogonalLoop=1;jettySize=auto;html=1;exitX=1;exitY=0.5;exitDx=0;exitDy=0;entryX=0;entryY=0.5;entryDx=0;entryDy=0;" edge="1" parent="1" source="da1G7Z1QZZnTR9q6aklC-95" target="da1G7Z1QZZnTR9q6aklC-96">
          <mxGeometry relative="1" as="geometry" />
        </mxCell>
        <mxCell id="da1G7Z1QZZnTR9q6aklC-95" value="MF1" style="rounded=0;whiteSpace=wrap;html=1;" vertex="1" parent="1">
          <mxGeometry x="680" y="270" width="60" height="20" as="geometry" />
        </mxCell>
        <mxCell id="da1G7Z1QZZnTR9q6aklC-145" style="edgeStyle=orthogonalEdgeStyle;rounded=0;orthogonalLoop=1;jettySize=auto;html=1;exitX=0.5;exitY=1;exitDx=0;exitDy=0;entryX=0;entryY=0.5;entryDx=0;entryDy=0;" edge="1" parent="1" source="da1G7Z1QZZnTR9q6aklC-96" target="da1G7Z1QZZnTR9q6aklC-107">
          <mxGeometry relative="1" as="geometry" />
        </mxCell>
        <mxCell id="da1G7Z1QZZnTR9q6aklC-96" value="CW1" style="rounded=0;whiteSpace=wrap;html=1;" vertex="1" parent="1">
          <mxGeometry x="815" y="300" width="60" height="20" as="geometry" />
        </mxCell>
        <mxCell id="da1G7Z1QZZnTR9q6aklC-146" style="edgeStyle=orthogonalEdgeStyle;rounded=0;orthogonalLoop=1;jettySize=auto;html=1;exitX=0.5;exitY=1;exitDx=0;exitDy=0;entryX=0;entryY=0.5;entryDx=0;entryDy=0;" edge="1" parent="1" source="da1G7Z1QZZnTR9q6aklC-107" target="da1G7Z1QZZnTR9q6aklC-110">
          <mxGeometry relative="1" as="geometry" />
        </mxCell>
        <mxCell id="da1G7Z1QZZnTR9q6aklC-107" value="CW2" style="rounded=0;whiteSpace=wrap;html=1;" vertex="1" parent="1">
          <mxGeometry x="875" y="340" width="60" height="20" as="geometry" />
        </mxCell>
        <mxCell id="da1G7Z1QZZnTR9q6aklC-147" style="edgeStyle=orthogonalEdgeStyle;rounded=0;orthogonalLoop=1;jettySize=auto;html=1;exitX=0.5;exitY=1;exitDx=0;exitDy=0;entryX=0;entryY=0.5;entryDx=0;entryDy=0;" edge="1" parent="1" source="da1G7Z1QZZnTR9q6aklC-110" target="da1G7Z1QZZnTR9q6aklC-122">
          <mxGeometry relative="1" as="geometry" />
        </mxCell>
        <mxCell id="da1G7Z1QZZnTR9q6aklC-110" value="CW3" style="rounded=0;whiteSpace=wrap;html=1;" vertex="1" parent="1">
          <mxGeometry x="935" y="380" width="60" height="20" as="geometry" />
        </mxCell>
        <mxCell id="da1G7Z1QZZnTR9q6aklC-130" style="edgeStyle=orthogonalEdgeStyle;rounded=0;orthogonalLoop=1;jettySize=auto;html=1;exitX=1;exitY=0.5;exitDx=0;exitDy=0;entryX=0;entryY=0.5;entryDx=0;entryDy=0;" edge="1" parent="1" source="da1G7Z1QZZnTR9q6aklC-122" target="da1G7Z1QZZnTR9q6aklC-129">
          <mxGeometry relative="1" as="geometry" />
        </mxCell>
        <mxCell id="da1G7Z1QZZnTR9q6aklC-122" value="CW4" style="rounded=0;whiteSpace=wrap;html=1;" vertex="1" parent="1">
          <mxGeometry x="995" y="420" width="60" height="20" as="geometry" />
        </mxCell>
        <mxCell id="da1G7Z1QZZnTR9q6aklC-131" style="edgeStyle=orthogonalEdgeStyle;rounded=0;orthogonalLoop=1;jettySize=auto;html=1;exitX=1;exitY=0.5;exitDx=0;exitDy=0;entryX=0;entryY=0.5;entryDx=0;entryDy=0;" edge="1" parent="1" source="da1G7Z1QZZnTR9q6aklC-125" target="da1G7Z1QZZnTR9q6aklC-129">
          <mxGeometry relative="1" as="geometry" />
        </mxCell>
        <mxCell id="da1G7Z1QZZnTR9q6aklC-125" value="CW6" style="rounded=0;whiteSpace=wrap;html=1;" vertex="1" parent="1">
          <mxGeometry x="995" y="460" width="60" height="20" as="geometry" />
        </mxCell>
        <mxCell id="da1G7Z1QZZnTR9q6aklC-148" style="edgeStyle=orthogonalEdgeStyle;rounded=0;orthogonalLoop=1;jettySize=auto;html=1;exitX=1;exitY=0.5;exitDx=0;exitDy=0;entryX=0;entryY=0.5;entryDx=0;entryDy=0;" edge="1" parent="1" source="da1G7Z1QZZnTR9q6aklC-126" target="da1G7Z1QZZnTR9q6aklC-125">
          <mxGeometry relative="1" as="geometry" />
        </mxCell>
        <mxCell id="da1G7Z1QZZnTR9q6aklC-126" value="MF2" style="rounded=0;whiteSpace=wrap;html=1;" vertex="1" parent="1">
          <mxGeometry x="680" y="490" width="60" height="20" as="geometry" />
        </mxCell>
        <mxCell id="da1G7Z1QZZnTR9q6aklC-140" style="edgeStyle=orthogonalEdgeStyle;rounded=0;orthogonalLoop=1;jettySize=auto;html=1;exitX=1;exitY=0.5;exitDx=0;exitDy=0;" edge="1" parent="1" source="da1G7Z1QZZnTR9q6aklC-129" target="da1G7Z1QZZnTR9q6aklC-138">
          <mxGeometry relative="1" as="geometry" />
        </mxCell>
        <mxCell id="da1G7Z1QZZnTR9q6aklC-129" value="CW5" style="rounded=0;whiteSpace=wrap;html=1;" vertex="1" parent="1">
          <mxGeometry x="1110" y="440" width="60" height="20" as="geometry" />
        </mxCell>
        <mxCell id="da1G7Z1QZZnTR9q6aklC-142" style="edgeStyle=orthogonalEdgeStyle;rounded=0;orthogonalLoop=1;jettySize=auto;html=1;exitX=1;exitY=0.5;exitDx=0;exitDy=0;entryX=0;entryY=0.5;entryDx=0;entryDy=0;" edge="1" parent="1" source="da1G7Z1QZZnTR9q6aklC-136" target="da1G7Z1QZZnTR9q6aklC-138">
          <mxGeometry relative="1" as="geometry" />
        </mxCell>
        <mxCell id="da1G7Z1QZZnTR9q6aklC-136" value="BR" style="rounded=0;whiteSpace=wrap;html=1;" vertex="1" parent="1">
          <mxGeometry x="1110" y="480" width="60" height="20" as="geometry" />
        </mxCell>
        <mxCell id="da1G7Z1QZZnTR9q6aklC-143" style="edgeStyle=orthogonalEdgeStyle;rounded=0;orthogonalLoop=1;jettySize=auto;html=1;exitX=1;exitY=0.5;exitDx=0;exitDy=0;entryX=0;entryY=0.5;entryDx=0;entryDy=0;" edge="1" parent="1" source="da1G7Z1QZZnTR9q6aklC-137" target="da1G7Z1QZZnTR9q6aklC-138">
          <mxGeometry relative="1" as="geometry" />
        </mxCell>
        <mxCell id="da1G7Z1QZZnTR9q6aklC-137" value="DR" style="rounded=0;whiteSpace=wrap;html=1;" vertex="1" parent="1">
          <mxGeometry x="1110" y="400" width="60" height="20" as="geometry" />
        </mxCell>
        <mxCell id="da1G7Z1QZZnTR9q6aklC-151" style="edgeStyle=orthogonalEdgeStyle;rounded=0;orthogonalLoop=1;jettySize=auto;html=1;exitX=1;exitY=0.5;exitDx=0;exitDy=0;entryX=0;entryY=0.5;entryDx=0;entryDy=0;" edge="1" parent="1" source="da1G7Z1QZZnTR9q6aklC-138" target="da1G7Z1QZZnTR9q6aklC-150">
          <mxGeometry relative="1" as="geometry" />
        </mxCell>
        <mxCell id="da1G7Z1QZZnTR9q6aklC-138" value="BOTS1" style="rounded=0;whiteSpace=wrap;html=1;" vertex="1" parent="1">
          <mxGeometry x="1211" y="440" width="60" height="20" as="geometry" />
        </mxCell>
        <mxCell id="da1G7Z1QZZnTR9q6aklC-155" style="edgeStyle=orthogonalEdgeStyle;rounded=0;orthogonalLoop=1;jettySize=auto;html=1;exitX=1;exitY=0.5;exitDx=0;exitDy=0;entryX=0;entryY=0.5;entryDx=0;entryDy=0;" edge="1" parent="1" source="da1G7Z1QZZnTR9q6aklC-150" target="da1G7Z1QZZnTR9q6aklC-153">
          <mxGeometry relative="1" as="geometry">
            <Array as="points">
              <mxPoint x="1610" y="450" />
              <mxPoint x="1610" y="450" />
            </Array>
          </mxGeometry>
        </mxCell>
        <mxCell id="da1G7Z1QZZnTR9q6aklC-150" value="ZP Malowanie S1" style="rounded=0;whiteSpace=wrap;html=1;" vertex="1" parent="1">
          <mxGeometry x="1330" y="440" width="120" height="20" as="geometry" />
        </mxCell>
        <mxCell id="da1G7Z1QZZnTR9q6aklC-154" style="edgeStyle=orthogonalEdgeStyle;rounded=0;orthogonalLoop=1;jettySize=auto;html=1;exitX=1;exitY=0.5;exitDx=0;exitDy=0;entryX=0;entryY=0.5;entryDx=0;entryDy=0;" edge="1" parent="1" source="da1G7Z1QZZnTR9q6aklC-152" target="da1G7Z1QZZnTR9q6aklC-153">
          <mxGeometry relative="1" as="geometry" />
        </mxCell>
        <mxCell id="da1G7Z1QZZnTR9q6aklC-152" value="PR S1" style="rounded=0;whiteSpace=wrap;html=1;" vertex="1" parent="1">
          <mxGeometry x="1520" y="410" width="120" height="20" as="geometry" />
        </mxCell>
        <mxCell id="da1G7Z1QZZnTR9q6aklC-157" style="edgeStyle=orthogonalEdgeStyle;rounded=0;orthogonalLoop=1;jettySize=auto;html=1;exitX=0.5;exitY=1;exitDx=0;exitDy=0;entryX=0;entryY=0.5;entryDx=0;entryDy=0;" edge="1" parent="1" source="da1G7Z1QZZnTR9q6aklC-153" target="da1G7Z1QZZnTR9q6aklC-156">
          <mxGeometry relative="1" as="geometry" />
        </mxCell>
        <mxCell id="da1G7Z1QZZnTR9q6aklC-153" value="ME S1" style="rounded=0;whiteSpace=wrap;html=1;" vertex="1" parent="1">
          <mxGeometry x="1710" y="440" width="120" height="20" as="geometry" />
        </mxCell>
        <mxCell id="da1G7Z1QZZnTR9q6aklC-156" value="EL S1" style="rounded=0;whiteSpace=wrap;html=1;" vertex="1" parent="1">
          <mxGeometry x="1880" y="470" width="120" height="20" as="geometry" />
        </mxCell>
        <mxCell id="da1G7Z1QZZnTR9q6aklC-160" value="ZP Wyposażenie S1" style="rounded=0;whiteSpace=wrap;html=1;" vertex="1" parent="1">
          <mxGeometry x="1710" y="360" width="120" height="40" as="geometry" />
        </mxCell>
        <mxCell id="da1G7Z1QZZnTR9q6aklC-161" value="" style="rounded=0;whiteSpace=wrap;html=1;" vertex="1" parent="1">
          <mxGeometry x="1590" y="770" width="500" height="140" as="geometry" />
        </mxCell>
        <mxCell id="da1G7Z1QZZnTR9q6aklC-162" value="" style="rounded=0;whiteSpace=wrap;html=1;" vertex="1" parent="1">
          <mxGeometry x="1390" y="830" width="160" height="60" as="geometry" />
        </mxCell>
        <mxCell id="da1G7Z1QZZnTR9q6aklC-163" value="" style="rounded=0;whiteSpace=wrap;html=1;" vertex="1" parent="1">
          <mxGeometry x="670" y="590" width="700" height="340" as="geometry" />
        </mxCell>
        <mxCell id="da1G7Z1QZZnTR9q6aklC-164" value="" style="rounded=0;whiteSpace=wrap;html=1;" vertex="1" parent="1">
          <mxGeometry x="520" y="590" width="90" height="310" as="geometry" />
        </mxCell>
        <mxCell id="da1G7Z1QZZnTR9q6aklC-165" value="" style="rounded=0;whiteSpace=wrap;html=1;" vertex="1" parent="1">
          <mxGeometry x="75" y="590" width="95" height="310" as="geometry" />
        </mxCell>
        <mxCell id="da1G7Z1QZZnTR9q6aklC-166" value="" style="rounded=0;whiteSpace=wrap;html=1;" vertex="1" parent="1">
          <mxGeometry x="370" y="590" width="90" height="310" as="geometry" />
        </mxCell>
        <mxCell id="da1G7Z1QZZnTR9q6aklC-167" value="ZP Palenie S2" style="rounded=0;whiteSpace=wrap;html=1;" vertex="1" parent="1">
          <mxGeometry x="75" y="590" width="95" height="20" as="geometry" />
        </mxCell>
        <mxCell id="da1G7Z1QZZnTR9q6aklC-249" style="edgeStyle=orthogonalEdgeStyle;rounded=0;orthogonalLoop=1;jettySize=auto;html=1;exitX=1;exitY=0.5;exitDx=0;exitDy=0;" edge="1" parent="1" source="da1G7Z1QZZnTR9q6aklC-169" target="da1G7Z1QZZnTR9q6aklC-237">
          <mxGeometry relative="1" as="geometry" />
        </mxCell>
        <mxCell id="da1G7Z1QZZnTR9q6aklC-169" value="401" style="rounded=0;whiteSpace=wrap;html=1;" vertex="1" parent="1">
          <mxGeometry x="90" y="670" width="60" height="20" as="geometry" />
        </mxCell>
        <mxCell id="da1G7Z1QZZnTR9q6aklC-250" style="edgeStyle=orthogonalEdgeStyle;rounded=0;orthogonalLoop=1;jettySize=auto;html=1;exitX=1;exitY=0.5;exitDx=0;exitDy=0;" edge="1" parent="1" source="da1G7Z1QZZnTR9q6aklC-171" target="da1G7Z1QZZnTR9q6aklC-238">
          <mxGeometry relative="1" as="geometry" />
        </mxCell>
        <mxCell id="da1G7Z1QZZnTR9q6aklC-171" value="402" style="rounded=0;whiteSpace=wrap;html=1;" vertex="1" parent="1">
          <mxGeometry x="90" y="710" width="60" height="20" as="geometry" />
        </mxCell>
        <mxCell id="da1G7Z1QZZnTR9q6aklC-172" style="edgeStyle=orthogonalEdgeStyle;rounded=0;orthogonalLoop=1;jettySize=auto;html=1;exitX=1;exitY=0.5;exitDx=0;exitDy=0;entryX=0;entryY=0.5;entryDx=0;entryDy=0;" edge="1" parent="1" source="da1G7Z1QZZnTR9q6aklC-173">
          <mxGeometry relative="1" as="geometry">
            <mxPoint x="384" y="760" as="targetPoint" />
          </mxGeometry>
        </mxCell>
        <mxCell id="da1G7Z1QZZnTR9q6aklC-173" value="403" style="rounded=0;whiteSpace=wrap;html=1;" vertex="1" parent="1">
          <mxGeometry x="90" y="750" width="60" height="20" as="geometry" />
        </mxCell>
        <mxCell id="da1G7Z1QZZnTR9q6aklC-174" style="edgeStyle=orthogonalEdgeStyle;rounded=0;orthogonalLoop=1;jettySize=auto;html=1;exitX=1;exitY=0.5;exitDx=0;exitDy=0;entryX=0;entryY=0.5;entryDx=0;entryDy=0;" edge="1" parent="1" source="da1G7Z1QZZnTR9q6aklC-175">
          <mxGeometry relative="1" as="geometry">
            <mxPoint x="384" y="800" as="targetPoint" />
          </mxGeometry>
        </mxCell>
        <mxCell id="da1G7Z1QZZnTR9q6aklC-175" value="404" style="rounded=0;whiteSpace=wrap;html=1;" vertex="1" parent="1">
          <mxGeometry x="90" y="790" width="60" height="20" as="geometry" />
        </mxCell>
        <mxCell id="da1G7Z1QZZnTR9q6aklC-176" style="edgeStyle=orthogonalEdgeStyle;rounded=0;orthogonalLoop=1;jettySize=auto;html=1;exitX=1;exitY=0.5;exitDx=0;exitDy=0;entryX=0;entryY=0.5;entryDx=0;entryDy=0;" edge="1" parent="1" source="da1G7Z1QZZnTR9q6aklC-177">
          <mxGeometry relative="1" as="geometry">
            <mxPoint x="384" y="840" as="targetPoint" />
          </mxGeometry>
        </mxCell>
        <mxCell id="da1G7Z1QZZnTR9q6aklC-177" value="405" style="rounded=0;whiteSpace=wrap;html=1;" vertex="1" parent="1">
          <mxGeometry x="90" y="830" width="60" height="20" as="geometry" />
        </mxCell>
        <mxCell id="da1G7Z1QZZnTR9q6aklC-178" style="edgeStyle=orthogonalEdgeStyle;rounded=0;orthogonalLoop=1;jettySize=auto;html=1;exitX=1;exitY=0.5;exitDx=0;exitDy=0;entryX=0;entryY=0.5;entryDx=0;entryDy=0;" edge="1" parent="1" source="da1G7Z1QZZnTR9q6aklC-179">
          <mxGeometry relative="1" as="geometry">
            <mxPoint x="384" y="880" as="targetPoint" />
          </mxGeometry>
        </mxCell>
        <mxCell id="da1G7Z1QZZnTR9q6aklC-179" value="406" style="rounded=0;whiteSpace=wrap;html=1;" vertex="1" parent="1">
          <mxGeometry x="90" y="870" width="60" height="20" as="geometry" />
        </mxCell>
        <mxCell id="da1G7Z1QZZnTR9q6aklC-182" value="ZP Zwijanie S2" style="rounded=0;whiteSpace=wrap;html=1;" vertex="1" parent="1">
          <mxGeometry x="370" y="590" width="90" height="20" as="geometry" />
        </mxCell>
        <mxCell id="da1G7Z1QZZnTR9q6aklC-193" value="ZP Spawanie LW S2" style="rounded=0;whiteSpace=wrap;html=1;" vertex="1" parent="1">
          <mxGeometry x="520" y="590" width="90" height="30" as="geometry" />
        </mxCell>
        <mxCell id="da1G7Z1QZZnTR9q6aklC-194" style="edgeStyle=orthogonalEdgeStyle;rounded=0;orthogonalLoop=1;jettySize=auto;html=1;exitX=1;exitY=0.5;exitDx=0;exitDy=0;entryX=0;entryY=0.5;entryDx=0;entryDy=0;" edge="1" parent="1" target="da1G7Z1QZZnTR9q6aklC-208">
          <mxGeometry relative="1" as="geometry">
            <mxPoint x="595" y="680" as="sourcePoint" />
          </mxGeometry>
        </mxCell>
        <mxCell id="da1G7Z1QZZnTR9q6aklC-196" style="edgeStyle=orthogonalEdgeStyle;rounded=0;orthogonalLoop=1;jettySize=auto;html=1;exitX=1;exitY=0.5;exitDx=0;exitDy=0;entryX=0;entryY=0.5;entryDx=0;entryDy=0;" edge="1" parent="1" target="da1G7Z1QZZnTR9q6aklC-210">
          <mxGeometry relative="1" as="geometry">
            <Array as="points">
              <mxPoint x="660" y="720" />
              <mxPoint x="660" y="720" />
            </Array>
            <mxPoint x="595" y="720" as="sourcePoint" />
          </mxGeometry>
        </mxCell>
        <mxCell id="da1G7Z1QZZnTR9q6aklC-198" style="edgeStyle=orthogonalEdgeStyle;rounded=0;orthogonalLoop=1;jettySize=auto;html=1;exitX=1;exitY=0.5;exitDx=0;exitDy=0;entryX=0;entryY=0.5;entryDx=0;entryDy=0;" edge="1" parent="1" target="da1G7Z1QZZnTR9q6aklC-212">
          <mxGeometry relative="1" as="geometry">
            <mxPoint x="595" y="760" as="sourcePoint" />
          </mxGeometry>
        </mxCell>
        <mxCell id="da1G7Z1QZZnTR9q6aklC-200" style="edgeStyle=orthogonalEdgeStyle;rounded=0;orthogonalLoop=1;jettySize=auto;html=1;exitX=1;exitY=0.5;exitDx=0;exitDy=0;entryX=0;entryY=0.5;entryDx=0;entryDy=0;" edge="1" parent="1" target="da1G7Z1QZZnTR9q6aklC-214">
          <mxGeometry relative="1" as="geometry">
            <mxPoint x="595" y="800" as="sourcePoint" />
          </mxGeometry>
        </mxCell>
        <mxCell id="da1G7Z1QZZnTR9q6aklC-202" style="edgeStyle=orthogonalEdgeStyle;rounded=0;orthogonalLoop=1;jettySize=auto;html=1;exitX=1;exitY=0.5;exitDx=0;exitDy=0;" edge="1" parent="1" target="da1G7Z1QZZnTR9q6aklC-257">
          <mxGeometry relative="1" as="geometry">
            <mxPoint x="595" y="840" as="sourcePoint" />
          </mxGeometry>
        </mxCell>
        <mxCell id="da1G7Z1QZZnTR9q6aklC-204" value="ZP Spawanie CW S2" style="rounded=0;whiteSpace=wrap;html=1;" vertex="1" parent="1">
          <mxGeometry x="920" y="590" width="110" height="40" as="geometry" />
        </mxCell>
        <mxCell id="da1G7Z1QZZnTR9q6aklC-205" style="edgeStyle=orthogonalEdgeStyle;rounded=0;orthogonalLoop=1;jettySize=auto;html=1;exitX=1;exitY=0.5;exitDx=0;exitDy=0;entryX=0;entryY=0.5;entryDx=0;entryDy=0;" edge="1" parent="1" source="da1G7Z1QZZnTR9q6aklC-206" target="da1G7Z1QZZnTR9q6aklC-208">
          <mxGeometry relative="1" as="geometry" />
        </mxCell>
        <mxCell id="da1G7Z1QZZnTR9q6aklC-206" value="MF2" style="rounded=0;whiteSpace=wrap;html=1;" vertex="1" parent="1">
          <mxGeometry x="680" y="640" width="60" height="20" as="geometry" />
        </mxCell>
        <mxCell id="da1G7Z1QZZnTR9q6aklC-207" style="edgeStyle=orthogonalEdgeStyle;rounded=0;orthogonalLoop=1;jettySize=auto;html=1;exitX=0.5;exitY=1;exitDx=0;exitDy=0;entryX=0;entryY=0.5;entryDx=0;entryDy=0;" edge="1" parent="1" source="da1G7Z1QZZnTR9q6aklC-208" target="da1G7Z1QZZnTR9q6aklC-210">
          <mxGeometry relative="1" as="geometry" />
        </mxCell>
        <mxCell id="da1G7Z1QZZnTR9q6aklC-208" value="CW1" style="rounded=0;whiteSpace=wrap;html=1;" vertex="1" parent="1">
          <mxGeometry x="815" y="670" width="60" height="20" as="geometry" />
        </mxCell>
        <mxCell id="da1G7Z1QZZnTR9q6aklC-209" style="edgeStyle=orthogonalEdgeStyle;rounded=0;orthogonalLoop=1;jettySize=auto;html=1;exitX=0.5;exitY=1;exitDx=0;exitDy=0;entryX=0;entryY=0.5;entryDx=0;entryDy=0;" edge="1" parent="1" source="da1G7Z1QZZnTR9q6aklC-210" target="da1G7Z1QZZnTR9q6aklC-212">
          <mxGeometry relative="1" as="geometry" />
        </mxCell>
        <mxCell id="da1G7Z1QZZnTR9q6aklC-210" value="CW2" style="rounded=0;whiteSpace=wrap;html=1;" vertex="1" parent="1">
          <mxGeometry x="875" y="710" width="60" height="20" as="geometry" />
        </mxCell>
        <mxCell id="da1G7Z1QZZnTR9q6aklC-211" style="edgeStyle=orthogonalEdgeStyle;rounded=0;orthogonalLoop=1;jettySize=auto;html=1;exitX=0.5;exitY=1;exitDx=0;exitDy=0;entryX=0;entryY=0.5;entryDx=0;entryDy=0;" edge="1" parent="1" source="da1G7Z1QZZnTR9q6aklC-212" target="da1G7Z1QZZnTR9q6aklC-214">
          <mxGeometry relative="1" as="geometry" />
        </mxCell>
        <mxCell id="da1G7Z1QZZnTR9q6aklC-212" value="CW3" style="rounded=0;whiteSpace=wrap;html=1;" vertex="1" parent="1">
          <mxGeometry x="935" y="750" width="60" height="20" as="geometry" />
        </mxCell>
        <mxCell id="da1G7Z1QZZnTR9q6aklC-258" style="edgeStyle=orthogonalEdgeStyle;rounded=0;orthogonalLoop=1;jettySize=auto;html=1;exitX=0.5;exitY=1;exitDx=0;exitDy=0;entryX=0;entryY=0.5;entryDx=0;entryDy=0;" edge="1" parent="1" source="da1G7Z1QZZnTR9q6aklC-214" target="da1G7Z1QZZnTR9q6aklC-257">
          <mxGeometry relative="1" as="geometry" />
        </mxCell>
        <mxCell id="da1G7Z1QZZnTR9q6aklC-214" value="CW4" style="rounded=0;whiteSpace=wrap;html=1;" vertex="1" parent="1">
          <mxGeometry x="995" y="790" width="60" height="20" as="geometry" />
        </mxCell>
        <mxCell id="da1G7Z1QZZnTR9q6aklC-215" style="edgeStyle=orthogonalEdgeStyle;rounded=0;orthogonalLoop=1;jettySize=auto;html=1;exitX=1;exitY=0.5;exitDx=0;exitDy=0;entryX=0;entryY=0.5;entryDx=0;entryDy=0;" edge="1" parent="1" source="da1G7Z1QZZnTR9q6aklC-216" target="da1G7Z1QZZnTR9q6aklC-220">
          <mxGeometry relative="1" as="geometry" />
        </mxCell>
        <mxCell id="da1G7Z1QZZnTR9q6aklC-216" value="CW7" style="rounded=0;whiteSpace=wrap;html=1;" vertex="1" parent="1">
          <mxGeometry x="1055" y="870" width="60" height="20" as="geometry" />
        </mxCell>
        <mxCell id="da1G7Z1QZZnTR9q6aklC-217" style="edgeStyle=orthogonalEdgeStyle;rounded=0;orthogonalLoop=1;jettySize=auto;html=1;exitX=1;exitY=0.5;exitDx=0;exitDy=0;entryX=0;entryY=0.5;entryDx=0;entryDy=0;" edge="1" parent="1" source="da1G7Z1QZZnTR9q6aklC-218" target="da1G7Z1QZZnTR9q6aklC-216">
          <mxGeometry relative="1" as="geometry" />
        </mxCell>
        <mxCell id="da1G7Z1QZZnTR9q6aklC-218" value="MF3" style="rounded=0;whiteSpace=wrap;html=1;" vertex="1" parent="1">
          <mxGeometry x="680" y="900" width="60" height="20" as="geometry" />
        </mxCell>
        <mxCell id="da1G7Z1QZZnTR9q6aklC-219" style="edgeStyle=orthogonalEdgeStyle;rounded=0;orthogonalLoop=1;jettySize=auto;html=1;exitX=1;exitY=0.5;exitDx=0;exitDy=0;" edge="1" parent="1" source="da1G7Z1QZZnTR9q6aklC-220" target="da1G7Z1QZZnTR9q6aklC-226">
          <mxGeometry relative="1" as="geometry" />
        </mxCell>
        <mxCell id="da1G7Z1QZZnTR9q6aklC-220" value="CW6" style="rounded=0;whiteSpace=wrap;html=1;" vertex="1" parent="1">
          <mxGeometry x="1190" y="850" width="60" height="20" as="geometry" />
        </mxCell>
        <mxCell id="da1G7Z1QZZnTR9q6aklC-221" style="edgeStyle=orthogonalEdgeStyle;rounded=0;orthogonalLoop=1;jettySize=auto;html=1;exitX=1;exitY=0.5;exitDx=0;exitDy=0;entryX=0;entryY=0.5;entryDx=0;entryDy=0;" edge="1" parent="1" source="da1G7Z1QZZnTR9q6aklC-222" target="da1G7Z1QZZnTR9q6aklC-226">
          <mxGeometry relative="1" as="geometry" />
        </mxCell>
        <mxCell id="da1G7Z1QZZnTR9q6aklC-222" value="BR" style="rounded=0;whiteSpace=wrap;html=1;" vertex="1" parent="1">
          <mxGeometry x="1190" y="890" width="60" height="20" as="geometry" />
        </mxCell>
        <mxCell id="da1G7Z1QZZnTR9q6aklC-223" style="edgeStyle=orthogonalEdgeStyle;rounded=0;orthogonalLoop=1;jettySize=auto;html=1;exitX=1;exitY=0.5;exitDx=0;exitDy=0;entryX=0;entryY=0.5;entryDx=0;entryDy=0;" edge="1" parent="1" source="da1G7Z1QZZnTR9q6aklC-224" target="da1G7Z1QZZnTR9q6aklC-226">
          <mxGeometry relative="1" as="geometry" />
        </mxCell>
        <mxCell id="da1G7Z1QZZnTR9q6aklC-224" value="DR" style="rounded=0;whiteSpace=wrap;html=1;" vertex="1" parent="1">
          <mxGeometry x="1190" y="810" width="60" height="20" as="geometry" />
        </mxCell>
        <mxCell id="da1G7Z1QZZnTR9q6aklC-225" style="edgeStyle=orthogonalEdgeStyle;rounded=0;orthogonalLoop=1;jettySize=auto;html=1;exitX=1;exitY=0.5;exitDx=0;exitDy=0;entryX=0;entryY=0.5;entryDx=0;entryDy=0;" edge="1" parent="1" source="da1G7Z1QZZnTR9q6aklC-226" target="da1G7Z1QZZnTR9q6aklC-228">
          <mxGeometry relative="1" as="geometry" />
        </mxCell>
        <mxCell id="da1G7Z1QZZnTR9q6aklC-226" value="MIDS2" style="rounded=0;whiteSpace=wrap;html=1;" vertex="1" parent="1">
          <mxGeometry x="1291" y="850" width="60" height="20" as="geometry" />
        </mxCell>
        <mxCell id="da1G7Z1QZZnTR9q6aklC-227" style="edgeStyle=orthogonalEdgeStyle;rounded=0;orthogonalLoop=1;jettySize=auto;html=1;exitX=1;exitY=0.5;exitDx=0;exitDy=0;entryX=0;entryY=0.5;entryDx=0;entryDy=0;" edge="1" parent="1" source="da1G7Z1QZZnTR9q6aklC-228" target="da1G7Z1QZZnTR9q6aklC-232">
          <mxGeometry relative="1" as="geometry">
            <Array as="points">
              <mxPoint x="1690" y="860" />
              <mxPoint x="1690" y="860" />
            </Array>
          </mxGeometry>
        </mxCell>
        <mxCell id="da1G7Z1QZZnTR9q6aklC-228" value="ZP Malowanie S2" style="rounded=0;whiteSpace=wrap;html=1;" vertex="1" parent="1">
          <mxGeometry x="1410" y="850" width="120" height="20" as="geometry" />
        </mxCell>
        <mxCell id="da1G7Z1QZZnTR9q6aklC-229" style="edgeStyle=orthogonalEdgeStyle;rounded=0;orthogonalLoop=1;jettySize=auto;html=1;exitX=1;exitY=0.5;exitDx=0;exitDy=0;entryX=0;entryY=0.5;entryDx=0;entryDy=0;" edge="1" parent="1" source="da1G7Z1QZZnTR9q6aklC-230" target="da1G7Z1QZZnTR9q6aklC-232">
          <mxGeometry relative="1" as="geometry" />
        </mxCell>
        <mxCell id="da1G7Z1QZZnTR9q6aklC-230" value="PR S2" style="rounded=0;whiteSpace=wrap;html=1;" vertex="1" parent="1">
          <mxGeometry x="1600" y="820" width="120" height="20" as="geometry" />
        </mxCell>
        <mxCell id="da1G7Z1QZZnTR9q6aklC-231" style="edgeStyle=orthogonalEdgeStyle;rounded=0;orthogonalLoop=1;jettySize=auto;html=1;exitX=0.5;exitY=1;exitDx=0;exitDy=0;entryX=0;entryY=0.5;entryDx=0;entryDy=0;" edge="1" parent="1" source="da1G7Z1QZZnTR9q6aklC-232" target="da1G7Z1QZZnTR9q6aklC-233">
          <mxGeometry relative="1" as="geometry" />
        </mxCell>
        <mxCell id="da1G7Z1QZZnTR9q6aklC-232" value="ME S2" style="rounded=0;whiteSpace=wrap;html=1;" vertex="1" parent="1">
          <mxGeometry x="1790" y="850" width="120" height="20" as="geometry" />
        </mxCell>
        <mxCell id="da1G7Z1QZZnTR9q6aklC-233" value="EL S2" style="rounded=0;whiteSpace=wrap;html=1;" vertex="1" parent="1">
          <mxGeometry x="1960" y="880" width="120" height="20" as="geometry" />
        </mxCell>
        <mxCell id="da1G7Z1QZZnTR9q6aklC-234" value="ZP Wyposażenie S2" style="rounded=0;whiteSpace=wrap;html=1;" vertex="1" parent="1">
          <mxGeometry x="1790" y="770" width="120" height="40" as="geometry" />
        </mxCell>
        <mxCell id="da1G7Z1QZZnTR9q6aklC-251" style="edgeStyle=orthogonalEdgeStyle;rounded=0;orthogonalLoop=1;jettySize=auto;html=1;exitX=1;exitY=0.5;exitDx=0;exitDy=0;" edge="1" parent="1" source="da1G7Z1QZZnTR9q6aklC-237" target="da1G7Z1QZZnTR9q6aklC-243">
          <mxGeometry relative="1" as="geometry" />
        </mxCell>
        <mxCell id="da1G7Z1QZZnTR9q6aklC-237" value="401" style="rounded=0;whiteSpace=wrap;html=1;" vertex="1" parent="1">
          <mxGeometry x="385" y="670" width="60" height="20" as="geometry" />
        </mxCell>
        <mxCell id="da1G7Z1QZZnTR9q6aklC-252" style="edgeStyle=orthogonalEdgeStyle;rounded=0;orthogonalLoop=1;jettySize=auto;html=1;exitX=1;exitY=0.5;exitDx=0;exitDy=0;" edge="1" parent="1" source="da1G7Z1QZZnTR9q6aklC-238" target="da1G7Z1QZZnTR9q6aklC-244">
          <mxGeometry relative="1" as="geometry" />
        </mxCell>
        <mxCell id="da1G7Z1QZZnTR9q6aklC-238" value="402" style="rounded=0;whiteSpace=wrap;html=1;" vertex="1" parent="1">
          <mxGeometry x="385" y="710" width="60" height="20" as="geometry" />
        </mxCell>
        <mxCell id="da1G7Z1QZZnTR9q6aklC-253" style="edgeStyle=orthogonalEdgeStyle;rounded=0;orthogonalLoop=1;jettySize=auto;html=1;exitX=1;exitY=0.5;exitDx=0;exitDy=0;entryX=0;entryY=0.5;entryDx=0;entryDy=0;" edge="1" parent="1" source="da1G7Z1QZZnTR9q6aklC-239" target="da1G7Z1QZZnTR9q6aklC-245">
          <mxGeometry relative="1" as="geometry" />
        </mxCell>
        <mxCell id="da1G7Z1QZZnTR9q6aklC-239" value="403" style="rounded=0;whiteSpace=wrap;html=1;" vertex="1" parent="1">
          <mxGeometry x="385" y="750" width="60" height="20" as="geometry" />
        </mxCell>
        <mxCell id="da1G7Z1QZZnTR9q6aklC-254" style="edgeStyle=orthogonalEdgeStyle;rounded=0;orthogonalLoop=1;jettySize=auto;html=1;exitX=1;exitY=0.5;exitDx=0;exitDy=0;entryX=0;entryY=0.5;entryDx=0;entryDy=0;" edge="1" parent="1" source="da1G7Z1QZZnTR9q6aklC-240" target="da1G7Z1QZZnTR9q6aklC-246">
          <mxGeometry relative="1" as="geometry" />
        </mxCell>
        <mxCell id="da1G7Z1QZZnTR9q6aklC-240" value="404" style="rounded=0;whiteSpace=wrap;html=1;" vertex="1" parent="1">
          <mxGeometry x="385" y="790" width="60" height="20" as="geometry" />
        </mxCell>
        <mxCell id="da1G7Z1QZZnTR9q6aklC-255" style="edgeStyle=orthogonalEdgeStyle;rounded=0;orthogonalLoop=1;jettySize=auto;html=1;exitX=1;exitY=0.5;exitDx=0;exitDy=0;entryX=0;entryY=0.5;entryDx=0;entryDy=0;" edge="1" parent="1" source="da1G7Z1QZZnTR9q6aklC-241" target="da1G7Z1QZZnTR9q6aklC-247">
          <mxGeometry relative="1" as="geometry" />
        </mxCell>
        <mxCell id="da1G7Z1QZZnTR9q6aklC-241" value="405" style="rounded=0;whiteSpace=wrap;html=1;" vertex="1" parent="1">
          <mxGeometry x="385" y="830" width="60" height="20" as="geometry" />
        </mxCell>
        <mxCell id="da1G7Z1QZZnTR9q6aklC-256" style="edgeStyle=orthogonalEdgeStyle;rounded=0;orthogonalLoop=1;jettySize=auto;html=1;exitX=1;exitY=0.5;exitDx=0;exitDy=0;entryX=0;entryY=0.5;entryDx=0;entryDy=0;" edge="1" parent="1" source="da1G7Z1QZZnTR9q6aklC-242" target="da1G7Z1QZZnTR9q6aklC-248">
          <mxGeometry relative="1" as="geometry" />
        </mxCell>
        <mxCell id="da1G7Z1QZZnTR9q6aklC-242" value="406" style="rounded=0;whiteSpace=wrap;html=1;" vertex="1" parent="1">
          <mxGeometry x="385" y="870" width="60" height="20" as="geometry" />
        </mxCell>
        <mxCell id="da1G7Z1QZZnTR9q6aklC-243" value="401" style="rounded=0;whiteSpace=wrap;html=1;" vertex="1" parent="1">
          <mxGeometry x="535" y="670" width="60" height="20" as="geometry" />
        </mxCell>
        <mxCell id="da1G7Z1QZZnTR9q6aklC-244" value="402" style="rounded=0;whiteSpace=wrap;html=1;" vertex="1" parent="1">
          <mxGeometry x="535" y="710" width="60" height="20" as="geometry" />
        </mxCell>
        <mxCell id="da1G7Z1QZZnTR9q6aklC-245" value="403" style="rounded=0;whiteSpace=wrap;html=1;" vertex="1" parent="1">
          <mxGeometry x="535" y="750" width="60" height="20" as="geometry" />
        </mxCell>
        <mxCell id="da1G7Z1QZZnTR9q6aklC-246" value="404" style="rounded=0;whiteSpace=wrap;html=1;" vertex="1" parent="1">
          <mxGeometry x="535" y="790" width="60" height="20" as="geometry" />
        </mxCell>
        <mxCell id="da1G7Z1QZZnTR9q6aklC-247" value="405" style="rounded=0;whiteSpace=wrap;html=1;" vertex="1" parent="1">
          <mxGeometry x="535" y="830" width="60" height="20" as="geometry" />
        </mxCell>
        <mxCell id="da1G7Z1QZZnTR9q6aklC-260" style="edgeStyle=orthogonalEdgeStyle;rounded=0;orthogonalLoop=1;jettySize=auto;html=1;exitX=1;exitY=0.5;exitDx=0;exitDy=0;entryX=0;entryY=0.5;entryDx=0;entryDy=0;" edge="1" parent="1" source="da1G7Z1QZZnTR9q6aklC-248" target="da1G7Z1QZZnTR9q6aklC-216">
          <mxGeometry relative="1" as="geometry" />
        </mxCell>
        <mxCell id="da1G7Z1QZZnTR9q6aklC-248" value="406" style="rounded=0;whiteSpace=wrap;html=1;" vertex="1" parent="1">
          <mxGeometry x="535" y="870" width="60" height="20" as="geometry" />
        </mxCell>
        <mxCell id="da1G7Z1QZZnTR9q6aklC-259" style="edgeStyle=orthogonalEdgeStyle;rounded=0;orthogonalLoop=1;jettySize=auto;html=1;exitX=1;exitY=0.5;exitDx=0;exitDy=0;entryX=0;entryY=0.5;entryDx=0;entryDy=0;" edge="1" parent="1" source="da1G7Z1QZZnTR9q6aklC-257" target="da1G7Z1QZZnTR9q6aklC-220">
          <mxGeometry relative="1" as="geometry" />
        </mxCell>
        <mxCell id="da1G7Z1QZZnTR9q6aklC-257" value="CW5" style="rounded=0;whiteSpace=wrap;html=1;" vertex="1" parent="1">
          <mxGeometry x="1055" y="830" width="60" height="20" as="geometry" />
        </mxCell>
        <mxCell id="da1G7Z1QZZnTR9q6aklC-261" value="" style="rounded=0;whiteSpace=wrap;html=1;" vertex="1" parent="1">
          <mxGeometry x="1716" y="1280" width="500" height="140" as="geometry" />
        </mxCell>
        <mxCell id="da1G7Z1QZZnTR9q6aklC-262" value="" style="rounded=0;whiteSpace=wrap;html=1;" vertex="1" parent="1">
          <mxGeometry x="1516" y="1340" width="160" height="60" as="geometry" />
        </mxCell>
        <mxCell id="da1G7Z1QZZnTR9q6aklC-263" value="" style="rounded=0;whiteSpace=wrap;html=1;" vertex="1" parent="1">
          <mxGeometry x="672.5" y="1020" width="827.5" height="420" as="geometry" />
        </mxCell>
        <mxCell id="da1G7Z1QZZnTR9q6aklC-264" value="" style="rounded=0;whiteSpace=wrap;html=1;" vertex="1" parent="1">
          <mxGeometry x="522.5" y="1020" width="90" height="390" as="geometry" />
        </mxCell>
        <mxCell id="da1G7Z1QZZnTR9q6aklC-265" value="" style="rounded=0;whiteSpace=wrap;html=1;" vertex="1" parent="1">
          <mxGeometry x="77.5" y="1020" width="95" height="390" as="geometry" />
        </mxCell>
        <mxCell id="da1G7Z1QZZnTR9q6aklC-266" value="" style="rounded=0;whiteSpace=wrap;html=1;" vertex="1" parent="1">
          <mxGeometry x="372.5" y="1020" width="90" height="390" as="geometry" />
        </mxCell>
        <mxCell id="da1G7Z1QZZnTR9q6aklC-267" value="ZP Palenie S3" style="rounded=0;whiteSpace=wrap;html=1;" vertex="1" parent="1">
          <mxGeometry x="77.5" y="1020" width="95" height="20" as="geometry" />
        </mxCell>
        <mxCell id="da1G7Z1QZZnTR9q6aklC-268" style="edgeStyle=orthogonalEdgeStyle;rounded=0;orthogonalLoop=1;jettySize=auto;html=1;exitX=1;exitY=0.5;exitDx=0;exitDy=0;" edge="1" parent="1" source="da1G7Z1QZZnTR9q6aklC-269" target="da1G7Z1QZZnTR9q6aklC-319">
          <mxGeometry relative="1" as="geometry" />
        </mxCell>
        <mxCell id="da1G7Z1QZZnTR9q6aklC-269" value="401" style="rounded=0;whiteSpace=wrap;html=1;" vertex="1" parent="1">
          <mxGeometry x="92.5" y="1100" width="60" height="20" as="geometry" />
        </mxCell>
        <mxCell id="da1G7Z1QZZnTR9q6aklC-270" style="edgeStyle=orthogonalEdgeStyle;rounded=0;orthogonalLoop=1;jettySize=auto;html=1;exitX=1;exitY=0.5;exitDx=0;exitDy=0;" edge="1" parent="1" source="da1G7Z1QZZnTR9q6aklC-271" target="da1G7Z1QZZnTR9q6aklC-321">
          <mxGeometry relative="1" as="geometry" />
        </mxCell>
        <mxCell id="da1G7Z1QZZnTR9q6aklC-271" value="402" style="rounded=0;whiteSpace=wrap;html=1;" vertex="1" parent="1">
          <mxGeometry x="92.5" y="1140" width="60" height="20" as="geometry" />
        </mxCell>
        <mxCell id="da1G7Z1QZZnTR9q6aklC-272" style="edgeStyle=orthogonalEdgeStyle;rounded=0;orthogonalLoop=1;jettySize=auto;html=1;exitX=1;exitY=0.5;exitDx=0;exitDy=0;entryX=0;entryY=0.5;entryDx=0;entryDy=0;" edge="1" parent="1" source="da1G7Z1QZZnTR9q6aklC-273">
          <mxGeometry relative="1" as="geometry">
            <mxPoint x="386.5" y="1190" as="targetPoint" />
          </mxGeometry>
        </mxCell>
        <mxCell id="da1G7Z1QZZnTR9q6aklC-273" value="403" style="rounded=0;whiteSpace=wrap;html=1;" vertex="1" parent="1">
          <mxGeometry x="92.5" y="1180" width="60" height="20" as="geometry" />
        </mxCell>
        <mxCell id="da1G7Z1QZZnTR9q6aklC-274" style="edgeStyle=orthogonalEdgeStyle;rounded=0;orthogonalLoop=1;jettySize=auto;html=1;exitX=1;exitY=0.5;exitDx=0;exitDy=0;entryX=0;entryY=0.5;entryDx=0;entryDy=0;" edge="1" parent="1" source="da1G7Z1QZZnTR9q6aklC-275">
          <mxGeometry relative="1" as="geometry">
            <mxPoint x="386.5" y="1230" as="targetPoint" />
          </mxGeometry>
        </mxCell>
        <mxCell id="da1G7Z1QZZnTR9q6aklC-275" value="404" style="rounded=0;whiteSpace=wrap;html=1;" vertex="1" parent="1">
          <mxGeometry x="92.5" y="1220" width="60" height="20" as="geometry" />
        </mxCell>
        <mxCell id="da1G7Z1QZZnTR9q6aklC-276" style="edgeStyle=orthogonalEdgeStyle;rounded=0;orthogonalLoop=1;jettySize=auto;html=1;exitX=1;exitY=0.5;exitDx=0;exitDy=0;entryX=0;entryY=0.5;entryDx=0;entryDy=0;" edge="1" parent="1" source="da1G7Z1QZZnTR9q6aklC-277">
          <mxGeometry relative="1" as="geometry">
            <mxPoint x="386.5" y="1270" as="targetPoint" />
          </mxGeometry>
        </mxCell>
        <mxCell id="da1G7Z1QZZnTR9q6aklC-277" value="405" style="rounded=0;whiteSpace=wrap;html=1;" vertex="1" parent="1">
          <mxGeometry x="92.5" y="1260" width="60" height="20" as="geometry" />
        </mxCell>
        <mxCell id="da1G7Z1QZZnTR9q6aklC-278" style="edgeStyle=orthogonalEdgeStyle;rounded=0;orthogonalLoop=1;jettySize=auto;html=1;exitX=1;exitY=0.5;exitDx=0;exitDy=0;entryX=0;entryY=0.5;entryDx=0;entryDy=0;" edge="1" parent="1" source="da1G7Z1QZZnTR9q6aklC-279">
          <mxGeometry relative="1" as="geometry">
            <mxPoint x="386.5" y="1310" as="targetPoint" />
          </mxGeometry>
        </mxCell>
        <mxCell id="da1G7Z1QZZnTR9q6aklC-279" value="406" style="rounded=0;whiteSpace=wrap;html=1;" vertex="1" parent="1">
          <mxGeometry x="92.5" y="1300" width="60" height="20" as="geometry" />
        </mxCell>
        <mxCell id="da1G7Z1QZZnTR9q6aklC-280" value="ZP Zwijanie S3" style="rounded=0;whiteSpace=wrap;html=1;" vertex="1" parent="1">
          <mxGeometry x="372.5" y="1020" width="90" height="20" as="geometry" />
        </mxCell>
        <mxCell id="da1G7Z1QZZnTR9q6aklC-281" value="ZP Spawanie LW S3" style="rounded=0;whiteSpace=wrap;html=1;" vertex="1" parent="1">
          <mxGeometry x="522.5" y="1020" width="90" height="30" as="geometry" />
        </mxCell>
        <mxCell id="da1G7Z1QZZnTR9q6aklC-282" style="edgeStyle=orthogonalEdgeStyle;rounded=0;orthogonalLoop=1;jettySize=auto;html=1;exitX=1;exitY=0.5;exitDx=0;exitDy=0;entryX=0;entryY=0.5;entryDx=0;entryDy=0;" edge="1" parent="1" target="da1G7Z1QZZnTR9q6aklC-291">
          <mxGeometry relative="1" as="geometry">
            <mxPoint x="597.5" y="1110" as="sourcePoint" />
          </mxGeometry>
        </mxCell>
        <mxCell id="da1G7Z1QZZnTR9q6aklC-283" style="edgeStyle=orthogonalEdgeStyle;rounded=0;orthogonalLoop=1;jettySize=auto;html=1;exitX=1;exitY=0.5;exitDx=0;exitDy=0;entryX=0;entryY=0.5;entryDx=0;entryDy=0;" edge="1" parent="1" target="da1G7Z1QZZnTR9q6aklC-293">
          <mxGeometry relative="1" as="geometry">
            <Array as="points">
              <mxPoint x="662.5" y="1150" />
              <mxPoint x="662.5" y="1150" />
            </Array>
            <mxPoint x="597.5" y="1150" as="sourcePoint" />
          </mxGeometry>
        </mxCell>
        <mxCell id="da1G7Z1QZZnTR9q6aklC-284" style="edgeStyle=orthogonalEdgeStyle;rounded=0;orthogonalLoop=1;jettySize=auto;html=1;exitX=1;exitY=0.5;exitDx=0;exitDy=0;entryX=0;entryY=0.5;entryDx=0;entryDy=0;" edge="1" parent="1" target="da1G7Z1QZZnTR9q6aklC-295">
          <mxGeometry relative="1" as="geometry">
            <mxPoint x="597.5" y="1190" as="sourcePoint" />
          </mxGeometry>
        </mxCell>
        <mxCell id="da1G7Z1QZZnTR9q6aklC-285" style="edgeStyle=orthogonalEdgeStyle;rounded=0;orthogonalLoop=1;jettySize=auto;html=1;exitX=1;exitY=0.5;exitDx=0;exitDy=0;entryX=0;entryY=0.5;entryDx=0;entryDy=0;" edge="1" parent="1" target="da1G7Z1QZZnTR9q6aklC-297">
          <mxGeometry relative="1" as="geometry">
            <mxPoint x="597.5" y="1230" as="sourcePoint" />
          </mxGeometry>
        </mxCell>
        <mxCell id="da1G7Z1QZZnTR9q6aklC-286" style="edgeStyle=orthogonalEdgeStyle;rounded=0;orthogonalLoop=1;jettySize=auto;html=1;exitX=1;exitY=0.5;exitDx=0;exitDy=0;" edge="1" parent="1" target="da1G7Z1QZZnTR9q6aklC-338">
          <mxGeometry relative="1" as="geometry">
            <mxPoint x="597.5" y="1270" as="sourcePoint" />
          </mxGeometry>
        </mxCell>
        <mxCell id="da1G7Z1QZZnTR9q6aklC-287" value="ZP Spawanie CW S3" style="rounded=0;whiteSpace=wrap;html=1;" vertex="1" parent="1">
          <mxGeometry x="922.5" y="1020" width="110" height="40" as="geometry" />
        </mxCell>
        <mxCell id="da1G7Z1QZZnTR9q6aklC-288" style="edgeStyle=orthogonalEdgeStyle;rounded=0;orthogonalLoop=1;jettySize=auto;html=1;exitX=1;exitY=0.5;exitDx=0;exitDy=0;entryX=0;entryY=0.5;entryDx=0;entryDy=0;" edge="1" parent="1" source="da1G7Z1QZZnTR9q6aklC-289" target="da1G7Z1QZZnTR9q6aklC-291">
          <mxGeometry relative="1" as="geometry" />
        </mxCell>
        <mxCell id="da1G7Z1QZZnTR9q6aklC-289" value="MF2" style="rounded=0;whiteSpace=wrap;html=1;" vertex="1" parent="1">
          <mxGeometry x="682.5" y="1070" width="60" height="20" as="geometry" />
        </mxCell>
        <mxCell id="da1G7Z1QZZnTR9q6aklC-290" style="edgeStyle=orthogonalEdgeStyle;rounded=0;orthogonalLoop=1;jettySize=auto;html=1;exitX=0.5;exitY=1;exitDx=0;exitDy=0;entryX=0;entryY=0.5;entryDx=0;entryDy=0;" edge="1" parent="1" source="da1G7Z1QZZnTR9q6aklC-291" target="da1G7Z1QZZnTR9q6aklC-293">
          <mxGeometry relative="1" as="geometry" />
        </mxCell>
        <mxCell id="da1G7Z1QZZnTR9q6aklC-291" value="CW1" style="rounded=0;whiteSpace=wrap;html=1;" vertex="1" parent="1">
          <mxGeometry x="817.5" y="1100" width="60" height="20" as="geometry" />
        </mxCell>
        <mxCell id="da1G7Z1QZZnTR9q6aklC-292" style="edgeStyle=orthogonalEdgeStyle;rounded=0;orthogonalLoop=1;jettySize=auto;html=1;exitX=0.5;exitY=1;exitDx=0;exitDy=0;entryX=0;entryY=0.5;entryDx=0;entryDy=0;" edge="1" parent="1" source="da1G7Z1QZZnTR9q6aklC-293" target="da1G7Z1QZZnTR9q6aklC-295">
          <mxGeometry relative="1" as="geometry" />
        </mxCell>
        <mxCell id="da1G7Z1QZZnTR9q6aklC-293" value="CW2" style="rounded=0;whiteSpace=wrap;html=1;" vertex="1" parent="1">
          <mxGeometry x="877.5" y="1140" width="60" height="20" as="geometry" />
        </mxCell>
        <mxCell id="da1G7Z1QZZnTR9q6aklC-294" style="edgeStyle=orthogonalEdgeStyle;rounded=0;orthogonalLoop=1;jettySize=auto;html=1;exitX=0.5;exitY=1;exitDx=0;exitDy=0;entryX=0;entryY=0.5;entryDx=0;entryDy=0;" edge="1" parent="1" source="da1G7Z1QZZnTR9q6aklC-295" target="da1G7Z1QZZnTR9q6aklC-297">
          <mxGeometry relative="1" as="geometry" />
        </mxCell>
        <mxCell id="da1G7Z1QZZnTR9q6aklC-295" value="CW3" style="rounded=0;whiteSpace=wrap;html=1;" vertex="1" parent="1">
          <mxGeometry x="937.5" y="1180" width="60" height="20" as="geometry" />
        </mxCell>
        <mxCell id="da1G7Z1QZZnTR9q6aklC-296" style="edgeStyle=orthogonalEdgeStyle;rounded=0;orthogonalLoop=1;jettySize=auto;html=1;exitX=0.5;exitY=1;exitDx=0;exitDy=0;entryX=0;entryY=0.5;entryDx=0;entryDy=0;" edge="1" parent="1" source="da1G7Z1QZZnTR9q6aklC-297" target="da1G7Z1QZZnTR9q6aklC-338">
          <mxGeometry relative="1" as="geometry" />
        </mxCell>
        <mxCell id="da1G7Z1QZZnTR9q6aklC-297" value="CW4" style="rounded=0;whiteSpace=wrap;html=1;" vertex="1" parent="1">
          <mxGeometry x="997.5" y="1220" width="60" height="20" as="geometry" />
        </mxCell>
        <mxCell id="da1G7Z1QZZnTR9q6aklC-298" style="edgeStyle=orthogonalEdgeStyle;rounded=0;orthogonalLoop=1;jettySize=auto;html=1;exitX=1;exitY=0.5;exitDx=0;exitDy=0;entryX=0;entryY=0.5;entryDx=0;entryDy=0;" edge="1" parent="1" source="da1G7Z1QZZnTR9q6aklC-299" target="da1G7Z1QZZnTR9q6aklC-303">
          <mxGeometry relative="1" as="geometry">
            <mxPoint x="1241" y="1390" as="sourcePoint" />
          </mxGeometry>
        </mxCell>
        <mxCell id="da1G7Z1QZZnTR9q6aklC-299" value="CW9" style="rounded=0;whiteSpace=wrap;html=1;" vertex="1" parent="1">
          <mxGeometry x="1177.5" y="1380" width="60" height="20" as="geometry" />
        </mxCell>
        <mxCell id="da1G7Z1QZZnTR9q6aklC-300" style="edgeStyle=orthogonalEdgeStyle;rounded=0;orthogonalLoop=1;jettySize=auto;html=1;exitX=1;exitY=0.5;exitDx=0;exitDy=0;entryX=0;entryY=0.5;entryDx=0;entryDy=0;" edge="1" parent="1" source="da1G7Z1QZZnTR9q6aklC-301" target="da1G7Z1QZZnTR9q6aklC-299">
          <mxGeometry relative="1" as="geometry" />
        </mxCell>
        <mxCell id="da1G7Z1QZZnTR9q6aklC-301" value="MF3" style="rounded=0;whiteSpace=wrap;html=1;" vertex="1" parent="1">
          <mxGeometry x="682.5" y="1410" width="60" height="20" as="geometry" />
        </mxCell>
        <mxCell id="da1G7Z1QZZnTR9q6aklC-302" style="edgeStyle=orthogonalEdgeStyle;rounded=0;orthogonalLoop=1;jettySize=auto;html=1;exitX=1;exitY=0.5;exitDx=0;exitDy=0;" edge="1" parent="1" source="da1G7Z1QZZnTR9q6aklC-303" target="da1G7Z1QZZnTR9q6aklC-309">
          <mxGeometry relative="1" as="geometry" />
        </mxCell>
        <mxCell id="da1G7Z1QZZnTR9q6aklC-303" value="CW8" style="rounded=0;whiteSpace=wrap;html=1;" vertex="1" parent="1">
          <mxGeometry x="1316" y="1360" width="60" height="20" as="geometry" />
        </mxCell>
        <mxCell id="da1G7Z1QZZnTR9q6aklC-304" style="edgeStyle=orthogonalEdgeStyle;rounded=0;orthogonalLoop=1;jettySize=auto;html=1;exitX=1;exitY=0.5;exitDx=0;exitDy=0;entryX=0;entryY=0.5;entryDx=0;entryDy=0;" edge="1" parent="1" source="da1G7Z1QZZnTR9q6aklC-305" target="da1G7Z1QZZnTR9q6aklC-309">
          <mxGeometry relative="1" as="geometry" />
        </mxCell>
        <mxCell id="da1G7Z1QZZnTR9q6aklC-305" value="BR" style="rounded=0;whiteSpace=wrap;html=1;" vertex="1" parent="1">
          <mxGeometry x="1316" y="1400" width="60" height="20" as="geometry" />
        </mxCell>
        <mxCell id="da1G7Z1QZZnTR9q6aklC-306" style="edgeStyle=orthogonalEdgeStyle;rounded=0;orthogonalLoop=1;jettySize=auto;html=1;exitX=1;exitY=0.5;exitDx=0;exitDy=0;entryX=0;entryY=0.5;entryDx=0;entryDy=0;" edge="1" parent="1" source="da1G7Z1QZZnTR9q6aklC-307" target="da1G7Z1QZZnTR9q6aklC-309">
          <mxGeometry relative="1" as="geometry" />
        </mxCell>
        <mxCell id="da1G7Z1QZZnTR9q6aklC-307" value="DR" style="rounded=0;whiteSpace=wrap;html=1;" vertex="1" parent="1">
          <mxGeometry x="1316" y="1320" width="60" height="20" as="geometry" />
        </mxCell>
        <mxCell id="da1G7Z1QZZnTR9q6aklC-308" style="edgeStyle=orthogonalEdgeStyle;rounded=0;orthogonalLoop=1;jettySize=auto;html=1;exitX=1;exitY=0.5;exitDx=0;exitDy=0;entryX=0;entryY=0.5;entryDx=0;entryDy=0;" edge="1" parent="1" source="da1G7Z1QZZnTR9q6aklC-309" target="da1G7Z1QZZnTR9q6aklC-311">
          <mxGeometry relative="1" as="geometry" />
        </mxCell>
        <mxCell id="da1G7Z1QZZnTR9q6aklC-309" value="MIDS3" style="rounded=0;whiteSpace=wrap;html=1;" vertex="1" parent="1">
          <mxGeometry x="1417" y="1360" width="60" height="20" as="geometry" />
        </mxCell>
        <mxCell id="da1G7Z1QZZnTR9q6aklC-310" style="edgeStyle=orthogonalEdgeStyle;rounded=0;orthogonalLoop=1;jettySize=auto;html=1;exitX=1;exitY=0.5;exitDx=0;exitDy=0;entryX=0;entryY=0.5;entryDx=0;entryDy=0;" edge="1" parent="1" source="da1G7Z1QZZnTR9q6aklC-311" target="da1G7Z1QZZnTR9q6aklC-315">
          <mxGeometry relative="1" as="geometry">
            <Array as="points">
              <mxPoint x="1816" y="1370" />
              <mxPoint x="1816" y="1370" />
            </Array>
          </mxGeometry>
        </mxCell>
        <mxCell id="da1G7Z1QZZnTR9q6aklC-311" value="ZP Malowanie S3" style="rounded=0;whiteSpace=wrap;html=1;" vertex="1" parent="1">
          <mxGeometry x="1536" y="1360" width="120" height="20" as="geometry" />
        </mxCell>
        <mxCell id="da1G7Z1QZZnTR9q6aklC-312" style="edgeStyle=orthogonalEdgeStyle;rounded=0;orthogonalLoop=1;jettySize=auto;html=1;exitX=1;exitY=0.5;exitDx=0;exitDy=0;entryX=0;entryY=0.5;entryDx=0;entryDy=0;" edge="1" parent="1" source="da1G7Z1QZZnTR9q6aklC-313" target="da1G7Z1QZZnTR9q6aklC-315">
          <mxGeometry relative="1" as="geometry" />
        </mxCell>
        <mxCell id="da1G7Z1QZZnTR9q6aklC-313" value="PR S3" style="rounded=0;whiteSpace=wrap;html=1;" vertex="1" parent="1">
          <mxGeometry x="1726" y="1330" width="120" height="20" as="geometry" />
        </mxCell>
        <mxCell id="da1G7Z1QZZnTR9q6aklC-314" style="edgeStyle=orthogonalEdgeStyle;rounded=0;orthogonalLoop=1;jettySize=auto;html=1;exitX=0.5;exitY=1;exitDx=0;exitDy=0;entryX=0;entryY=0.5;entryDx=0;entryDy=0;" edge="1" parent="1" source="da1G7Z1QZZnTR9q6aklC-315" target="da1G7Z1QZZnTR9q6aklC-316">
          <mxGeometry relative="1" as="geometry" />
        </mxCell>
        <mxCell id="da1G7Z1QZZnTR9q6aklC-315" value="ME S3" style="rounded=0;whiteSpace=wrap;html=1;" vertex="1" parent="1">
          <mxGeometry x="1916" y="1360" width="120" height="20" as="geometry" />
        </mxCell>
        <mxCell id="da1G7Z1QZZnTR9q6aklC-316" value="EL S3" style="rounded=0;whiteSpace=wrap;html=1;" vertex="1" parent="1">
          <mxGeometry x="2086" y="1390" width="120" height="20" as="geometry" />
        </mxCell>
        <mxCell id="da1G7Z1QZZnTR9q6aklC-317" value="ZP Wyposażenie S3" style="rounded=0;whiteSpace=wrap;html=1;" vertex="1" parent="1">
          <mxGeometry x="1916" y="1280" width="120" height="40" as="geometry" />
        </mxCell>
        <mxCell id="da1G7Z1QZZnTR9q6aklC-318" style="edgeStyle=orthogonalEdgeStyle;rounded=0;orthogonalLoop=1;jettySize=auto;html=1;exitX=1;exitY=0.5;exitDx=0;exitDy=0;" edge="1" parent="1" source="da1G7Z1QZZnTR9q6aklC-319" target="da1G7Z1QZZnTR9q6aklC-330">
          <mxGeometry relative="1" as="geometry" />
        </mxCell>
        <mxCell id="da1G7Z1QZZnTR9q6aklC-319" value="401" style="rounded=0;whiteSpace=wrap;html=1;" vertex="1" parent="1">
          <mxGeometry x="387.5" y="1100" width="60" height="20" as="geometry" />
        </mxCell>
        <mxCell id="da1G7Z1QZZnTR9q6aklC-320" style="edgeStyle=orthogonalEdgeStyle;rounded=0;orthogonalLoop=1;jettySize=auto;html=1;exitX=1;exitY=0.5;exitDx=0;exitDy=0;" edge="1" parent="1" source="da1G7Z1QZZnTR9q6aklC-321" target="da1G7Z1QZZnTR9q6aklC-331">
          <mxGeometry relative="1" as="geometry" />
        </mxCell>
        <mxCell id="da1G7Z1QZZnTR9q6aklC-321" value="402" style="rounded=0;whiteSpace=wrap;html=1;" vertex="1" parent="1">
          <mxGeometry x="387.5" y="1140" width="60" height="20" as="geometry" />
        </mxCell>
        <mxCell id="da1G7Z1QZZnTR9q6aklC-322" style="edgeStyle=orthogonalEdgeStyle;rounded=0;orthogonalLoop=1;jettySize=auto;html=1;exitX=1;exitY=0.5;exitDx=0;exitDy=0;entryX=0;entryY=0.5;entryDx=0;entryDy=0;" edge="1" parent="1" source="da1G7Z1QZZnTR9q6aklC-323" target="da1G7Z1QZZnTR9q6aklC-332">
          <mxGeometry relative="1" as="geometry" />
        </mxCell>
        <mxCell id="da1G7Z1QZZnTR9q6aklC-323" value="403" style="rounded=0;whiteSpace=wrap;html=1;" vertex="1" parent="1">
          <mxGeometry x="387.5" y="1180" width="60" height="20" as="geometry" />
        </mxCell>
        <mxCell id="da1G7Z1QZZnTR9q6aklC-324" style="edgeStyle=orthogonalEdgeStyle;rounded=0;orthogonalLoop=1;jettySize=auto;html=1;exitX=1;exitY=0.5;exitDx=0;exitDy=0;entryX=0;entryY=0.5;entryDx=0;entryDy=0;" edge="1" parent="1" source="da1G7Z1QZZnTR9q6aklC-325" target="da1G7Z1QZZnTR9q6aklC-333">
          <mxGeometry relative="1" as="geometry" />
        </mxCell>
        <mxCell id="da1G7Z1QZZnTR9q6aklC-325" value="404" style="rounded=0;whiteSpace=wrap;html=1;" vertex="1" parent="1">
          <mxGeometry x="387.5" y="1220" width="60" height="20" as="geometry" />
        </mxCell>
        <mxCell id="da1G7Z1QZZnTR9q6aklC-326" style="edgeStyle=orthogonalEdgeStyle;rounded=0;orthogonalLoop=1;jettySize=auto;html=1;exitX=1;exitY=0.5;exitDx=0;exitDy=0;entryX=0;entryY=0.5;entryDx=0;entryDy=0;" edge="1" parent="1" source="da1G7Z1QZZnTR9q6aklC-327" target="da1G7Z1QZZnTR9q6aklC-334">
          <mxGeometry relative="1" as="geometry" />
        </mxCell>
        <mxCell id="da1G7Z1QZZnTR9q6aklC-327" value="405" style="rounded=0;whiteSpace=wrap;html=1;" vertex="1" parent="1">
          <mxGeometry x="387.5" y="1260" width="60" height="20" as="geometry" />
        </mxCell>
        <mxCell id="da1G7Z1QZZnTR9q6aklC-328" style="edgeStyle=orthogonalEdgeStyle;rounded=0;orthogonalLoop=1;jettySize=auto;html=1;exitX=1;exitY=0.5;exitDx=0;exitDy=0;entryX=0;entryY=0.5;entryDx=0;entryDy=0;" edge="1" parent="1" source="da1G7Z1QZZnTR9q6aklC-329" target="da1G7Z1QZZnTR9q6aklC-336">
          <mxGeometry relative="1" as="geometry" />
        </mxCell>
        <mxCell id="da1G7Z1QZZnTR9q6aklC-329" value="406" style="rounded=0;whiteSpace=wrap;html=1;" vertex="1" parent="1">
          <mxGeometry x="387.5" y="1300" width="60" height="20" as="geometry" />
        </mxCell>
        <mxCell id="da1G7Z1QZZnTR9q6aklC-330" value="401" style="rounded=0;whiteSpace=wrap;html=1;" vertex="1" parent="1">
          <mxGeometry x="537.5" y="1100" width="60" height="20" as="geometry" />
        </mxCell>
        <mxCell id="da1G7Z1QZZnTR9q6aklC-331" value="402" style="rounded=0;whiteSpace=wrap;html=1;" vertex="1" parent="1">
          <mxGeometry x="537.5" y="1140" width="60" height="20" as="geometry" />
        </mxCell>
        <mxCell id="da1G7Z1QZZnTR9q6aklC-332" value="403" style="rounded=0;whiteSpace=wrap;html=1;" vertex="1" parent="1">
          <mxGeometry x="537.5" y="1180" width="60" height="20" as="geometry" />
        </mxCell>
        <mxCell id="da1G7Z1QZZnTR9q6aklC-333" value="404" style="rounded=0;whiteSpace=wrap;html=1;" vertex="1" parent="1">
          <mxGeometry x="537.5" y="1220" width="60" height="20" as="geometry" />
        </mxCell>
        <mxCell id="da1G7Z1QZZnTR9q6aklC-334" value="405" style="rounded=0;whiteSpace=wrap;html=1;" vertex="1" parent="1">
          <mxGeometry x="537.5" y="1260" width="60" height="20" as="geometry" />
        </mxCell>
        <mxCell id="da1G7Z1QZZnTR9q6aklC-335" style="edgeStyle=orthogonalEdgeStyle;rounded=0;orthogonalLoop=1;jettySize=auto;html=1;exitX=1;exitY=0.5;exitDx=0;exitDy=0;entryX=0;entryY=0.5;entryDx=0;entryDy=0;" edge="1" parent="1" target="da1G7Z1QZZnTR9q6aklC-299">
          <mxGeometry relative="1" as="geometry">
            <mxPoint x="597.5" y="1390" as="sourcePoint" />
          </mxGeometry>
        </mxCell>
        <mxCell id="da1G7Z1QZZnTR9q6aklC-356" style="edgeStyle=orthogonalEdgeStyle;rounded=0;orthogonalLoop=1;jettySize=auto;html=1;exitX=1;exitY=0.5;exitDx=0;exitDy=0;entryX=0;entryY=0.5;entryDx=0;entryDy=0;" edge="1" parent="1" source="da1G7Z1QZZnTR9q6aklC-336" target="da1G7Z1QZZnTR9q6aklC-351">
          <mxGeometry relative="1" as="geometry" />
        </mxCell>
        <mxCell id="da1G7Z1QZZnTR9q6aklC-336" value="406" style="rounded=0;whiteSpace=wrap;html=1;" vertex="1" parent="1">
          <mxGeometry x="537.5" y="1300" width="60" height="20" as="geometry" />
        </mxCell>
        <mxCell id="da1G7Z1QZZnTR9q6aklC-337" style="edgeStyle=orthogonalEdgeStyle;rounded=0;orthogonalLoop=1;jettySize=auto;html=1;exitX=1;exitY=0.5;exitDx=0;exitDy=0;entryX=0;entryY=0.5;entryDx=0;entryDy=0;" edge="1" parent="1" source="da1G7Z1QZZnTR9q6aklC-353" target="da1G7Z1QZZnTR9q6aklC-303">
          <mxGeometry relative="1" as="geometry">
            <mxPoint x="1241" y="1350" as="sourcePoint" />
          </mxGeometry>
        </mxCell>
        <mxCell id="da1G7Z1QZZnTR9q6aklC-352" style="edgeStyle=orthogonalEdgeStyle;rounded=0;orthogonalLoop=1;jettySize=auto;html=1;exitX=0.5;exitY=1;exitDx=0;exitDy=0;entryX=0;entryY=0.5;entryDx=0;entryDy=0;" edge="1" parent="1" source="da1G7Z1QZZnTR9q6aklC-338" target="da1G7Z1QZZnTR9q6aklC-351">
          <mxGeometry relative="1" as="geometry" />
        </mxCell>
        <mxCell id="da1G7Z1QZZnTR9q6aklC-338" value="CW5" style="rounded=0;whiteSpace=wrap;html=1;" vertex="1" parent="1">
          <mxGeometry x="1057.5" y="1260" width="60" height="20" as="geometry" />
        </mxCell>
        <mxCell id="da1G7Z1QZZnTR9q6aklC-345" style="edgeStyle=orthogonalEdgeStyle;rounded=0;orthogonalLoop=1;jettySize=auto;html=1;exitX=1;exitY=0.5;exitDx=0;exitDy=0;entryX=0;entryY=0.5;entryDx=0;entryDy=0;" edge="1" parent="1" source="da1G7Z1QZZnTR9q6aklC-339" target="da1G7Z1QZZnTR9q6aklC-341">
          <mxGeometry relative="1" as="geometry" />
        </mxCell>
        <mxCell id="da1G7Z1QZZnTR9q6aklC-339" value="407" style="rounded=0;whiteSpace=wrap;html=1;" vertex="1" parent="1">
          <mxGeometry x="92.5" y="1340" width="60" height="20" as="geometry" />
        </mxCell>
        <mxCell id="da1G7Z1QZZnTR9q6aklC-346" style="edgeStyle=orthogonalEdgeStyle;rounded=0;orthogonalLoop=1;jettySize=auto;html=1;exitX=1;exitY=0.5;exitDx=0;exitDy=0;entryX=0;entryY=0.5;entryDx=0;entryDy=0;" edge="1" parent="1" source="da1G7Z1QZZnTR9q6aklC-340" target="da1G7Z1QZZnTR9q6aklC-342">
          <mxGeometry relative="1" as="geometry" />
        </mxCell>
        <mxCell id="da1G7Z1QZZnTR9q6aklC-340" value="408" style="rounded=0;whiteSpace=wrap;html=1;" vertex="1" parent="1">
          <mxGeometry x="92.5" y="1380" width="60" height="20" as="geometry" />
        </mxCell>
        <mxCell id="da1G7Z1QZZnTR9q6aklC-347" style="edgeStyle=orthogonalEdgeStyle;rounded=0;orthogonalLoop=1;jettySize=auto;html=1;exitX=1;exitY=0.5;exitDx=0;exitDy=0;entryX=0;entryY=0.5;entryDx=0;entryDy=0;" edge="1" parent="1" source="da1G7Z1QZZnTR9q6aklC-341" target="da1G7Z1QZZnTR9q6aklC-343">
          <mxGeometry relative="1" as="geometry" />
        </mxCell>
        <mxCell id="da1G7Z1QZZnTR9q6aklC-341" value="407" style="rounded=0;whiteSpace=wrap;html=1;" vertex="1" parent="1">
          <mxGeometry x="387.5" y="1340" width="60" height="20" as="geometry" />
        </mxCell>
        <mxCell id="da1G7Z1QZZnTR9q6aklC-348" style="edgeStyle=orthogonalEdgeStyle;rounded=0;orthogonalLoop=1;jettySize=auto;html=1;exitX=1;exitY=0.5;exitDx=0;exitDy=0;" edge="1" parent="1" source="da1G7Z1QZZnTR9q6aklC-342" target="da1G7Z1QZZnTR9q6aklC-344">
          <mxGeometry relative="1" as="geometry" />
        </mxCell>
        <mxCell id="da1G7Z1QZZnTR9q6aklC-342" value="408" style="rounded=0;whiteSpace=wrap;html=1;" vertex="1" parent="1">
          <mxGeometry x="387.5" y="1380" width="60" height="20" as="geometry" />
        </mxCell>
        <mxCell id="da1G7Z1QZZnTR9q6aklC-355" style="edgeStyle=orthogonalEdgeStyle;rounded=0;orthogonalLoop=1;jettySize=auto;html=1;exitX=1;exitY=0.5;exitDx=0;exitDy=0;entryX=0;entryY=0.5;entryDx=0;entryDy=0;" edge="1" parent="1" source="da1G7Z1QZZnTR9q6aklC-343" target="da1G7Z1QZZnTR9q6aklC-353">
          <mxGeometry relative="1" as="geometry" />
        </mxCell>
        <mxCell id="da1G7Z1QZZnTR9q6aklC-343" value="407" style="rounded=0;whiteSpace=wrap;html=1;" vertex="1" parent="1">
          <mxGeometry x="537.5" y="1340" width="60" height="20" as="geometry" />
        </mxCell>
        <mxCell id="da1G7Z1QZZnTR9q6aklC-344" value="408" style="rounded=0;whiteSpace=wrap;html=1;" vertex="1" parent="1">
          <mxGeometry x="537.5" y="1380" width="60" height="20" as="geometry" />
        </mxCell>
        <mxCell id="da1G7Z1QZZnTR9q6aklC-354" style="edgeStyle=orthogonalEdgeStyle;rounded=0;orthogonalLoop=1;jettySize=auto;html=1;exitX=0.5;exitY=1;exitDx=0;exitDy=0;entryX=0;entryY=0.5;entryDx=0;entryDy=0;" edge="1" parent="1" source="da1G7Z1QZZnTR9q6aklC-351" target="da1G7Z1QZZnTR9q6aklC-353">
          <mxGeometry relative="1" as="geometry" />
        </mxCell>
        <mxCell id="da1G7Z1QZZnTR9q6aklC-351" value="CW6" style="rounded=0;whiteSpace=wrap;html=1;" vertex="1" parent="1">
          <mxGeometry x="1117.5" y="1300" width="60" height="20" as="geometry" />
        </mxCell>
        <mxCell id="da1G7Z1QZZnTR9q6aklC-353" value="CW7" style="rounded=0;whiteSpace=wrap;html=1;" vertex="1" parent="1">
          <mxGeometry x="1177.5" y="1340" width="60" height="20" as="geometry" />
        </mxCell>
      </root>
    </mxGraphModel>
  </diagram>
</mxfile>
